<svg xmlns="http://www.w3.org/2000/svg" viewBox="0 0 52.92 28.22"><defs><style>.cls-1{fill:#111;stroke:#656666;stroke-width:0.1px;}.cls-1,.cls-10,.cls-6,.cls-9{stroke-miterlimit:10;}.cls-10,.cls-2{fill:#fcfcfc;}.cls-3{fill:#34373a;}.cls-4,.cls-6{fill:#5a5d60;}.cls-5{fill:#45494c;}.cls-10,.cls-6,.cls-9{stroke:#111;stroke-width:0.5px;}.cls-7{fill:#1ed760;}.cls-8{fill:#ddd;}.cls-9{fill:none;}</style></defs><title>article</title><g id="Calque_2" data-name="Calque 2"><g id="Calque_1-2" data-name="Calque 1"><path class="cls-1" d="M49,27.05V1.18A1.13,1.13,0,0,0,47.87.05H5.13A1.13,1.13,0,0,0,4,1.18V27.05Z"/><rect class="cls-2" x="4.97" y="1.88" width="43.06" height="24.23"/><circle class="cls-3" cx="26.6" cy="1.07" r="0.23"/><path class="cls-4" d="M0,27.05v.71l.35.09a8.5,8.5,0,0,0,2.17.29L50,28.22a7.67,7.67,0,0,0,3-.58h0v-.58H0Z"/><path class="cls-5" d="M22,27.05h9s0,.49-.69.49H22.66S22,27.54,22,27.05Z"/><rect class="cls-6" x="24.26" y="7.44" width="10.75" height="3.11" rx="0.05" ry="0.05"/><rect class="cls-7" x="25.52" y="12.22" width="8.15" height="0.66"/><rect class="cls-7" x="25.52" y="13.72" width="8.15" height="0.66"/><rect class="cls-8" x="25.52" y="15.23" width="8.15" height="0.66"/><rect class="cls-8" x="25.52" y="16.73" width="8.15" height="0.66"/><rect class="cls-7" x="25.52" y="18.24" width="8.15" height="0.66"/><rect class="cls-7" x="25.52" y="19.74" width="8.15" height="0.66"/><path class="cls-9" d="M24.29,7.44H35a.05.05,0,0,1,.05.05V22.1a.05.05,0,0,1-.05.05H24.31a.05.05,0,0,1-.05-.05V7.47A0,0,0,0,1,24.29,7.44Z"/><path class="cls-10" d="M17.76,6H28.42a.05.05,0,0,1,.05.05V20.62a.05.05,0,0,1-.05.05H17.78a.05.05,0,0,1-.05-.05V6A0,0,0,0,1,17.76,6Z"/><rect class="cls-9" x="17.72" y="5.95" width="10.75" height="3.11" rx="0.05" ry="0.05"/><rect class="cls-7" x="18.98" y="10.73" width="8.15" height="0.66"/><rect class="cls-7" x="18.98" y="12.24" width="8.15" height="0.66"/><rect class="cls-8" x="18.98" y="13.74" width="8.15" height="0.66"/><rect class="cls-8" x="18.98" y="15.25" width="8.15" height="0.66"/><rect class="cls-7" x="18.98" y="16.75" width="8.15" height="0.66"/><rect class="cls-7" x="18.98" y="18.26" width="8.15" height="0.66"/></g></g></svg>