<svg xmlns="http://www.w3.org/2000/svg" viewBox="0 0 17.79 16.71"><defs><style>.cls-1{fill:#5a5d60;}.cls-1,.cls-3,.cls-4{stroke:#111;stroke-miterlimit:10;stroke-width:0.5px;}.cls-2{fill:#1ed760;}.cls-3{fill:none;}.cls-4{fill:#fcfcfc;}.cls-5{fill:#ddd;}</style></defs><title>article-icon_1</title><g id="Calque_2" data-name="Calque 2"><g id="Calque_1-2" data-name="Calque 1"><rect class="cls-1" x="6.79" y="1.74" width="10.75" height="3.11" rx="0.05" ry="0.05"/><rect class="cls-2" x="8.04" y="6.52" width="8.15" height="0.66"/><rect class="cls-2" x="8.04" y="8.02" width="8.15" height="0.66"/><rect class="cls-2" x="8.04" y="9.53" width="8.15" height="0.66"/><rect class="cls-2" x="8.04" y="11.03" width="8.15" height="0.66"/><rect class="cls-2" x="8.04" y="12.54" width="8.15" height="0.66"/><rect class="cls-2" x="8.04" y="14.04" width="8.15" height="0.66"/><path class="cls-3" d="M6.82,1.74H17.49a.05.05,0,0,1,.05.05V16.4a.05.05,0,0,1-.05.05H6.84a.05.05,0,0,1-.05-.05V1.77A0,0,0,0,1,6.82,1.74Z"/><path class="cls-4" d="M.28.25H10.95A.05.05,0,0,1,11,.3V14.92a.05.05,0,0,1-.05.05H.3a.05.05,0,0,1-.05-.05V.28A0,0,0,0,1,.28.25Z"/><rect class="cls-3" x="0.25" y="0.25" width="10.75" height="3.11" rx="0.05" ry="0.05"/><rect class="cls-5" x="1.51" y="5.03" width="8.15" height="0.66"/><rect class="cls-5" x="1.51" y="6.54" width="8.15" height="0.66"/><rect class="cls-5" x="1.51" y="8.04" width="8.15" height="0.66"/><rect class="cls-5" x="1.51" y="9.55" width="8.15" height="0.66"/><rect class="cls-5" x="1.51" y="11.05" width="8.15" height="0.66"/><rect class="cls-5" x="1.51" y="12.56" width="8.15" height="0.66"/></g></g></svg>