<svg xmlns="http://www.w3.org/2000/svg" viewBox="0 0 52.92 28.22"><defs><style>.cls-1{fill:#111;stroke:#656666;stroke-width:0.1px;}.cls-1,.cls-6,.cls-7,.cls-9{stroke-miterlimit:10;}.cls-2{fill:#fcfcfc;}.cls-3{fill:#34373a;}.cls-4,.cls-7{fill:#5a5d60;}.cls-5{fill:#45494c;}.cls-6{fill:none;}.cls-6,.cls-7,.cls-9{stroke:#111;stroke-width:0.5px;}.cls-8{fill:#1ed760;}.cls-9{fill:#f9f9f9;}.cls-10{fill:#ddd;}</style></defs><title>chat</title><g id="Calque_2" data-name="Calque 2"><g id="Calque_1-2" data-name="Calque 1"><path class="cls-1" d="M49,27.05V1.18A1.13,1.13,0,0,0,47.87.05H5.13A1.13,1.13,0,0,0,4,1.18V27.05Z"/><rect class="cls-2" x="4.9" y="1.88" width="43.06" height="24.23"/><circle class="cls-3" cx="26.6" cy="1.07" r="0.23"/><path class="cls-4" d="M0,27.05v.71l.35.09a8.5,8.5,0,0,0,2.17.29L50,28.22a7.67,7.67,0,0,0,3-.58h0v-.58H0Z"/><path class="cls-5" d="M22,27.05h9s0,.49-.69.49H22.66S22,27.54,22,27.05Z"/><rect class="cls-6" x="23.66" y="8.73" width="14.17" height="10.92" rx="2.83" ry="2.83" transform="translate(61.5 28.38) rotate(180)"/><polygon class="cls-7" points="35.13 19.65 31.94 19.65 35.13 21.5 35.13 19.65"/><rect class="cls-8" x="26.54" y="11.52" width="8.15" height="0.66"/><rect class="cls-8" x="26.54" y="13.08" width="8.15" height="0.66"/><rect class="cls-8" x="26.54" y="14.63" width="8.15" height="0.66"/><rect class="cls-8" x="26.54" y="16.19" width="8.15" height="0.66"/><rect class="cls-9" x="15.03" y="6.49" width="14.17" height="10.92" rx="2.83" ry="2.83"/><polygon class="cls-7" points="17.73 17.41 20.93 17.41 17.73 19.27 17.73 17.41"/><rect class="cls-10" x="18.04" y="9.29" width="8.15" height="0.66"/><rect class="cls-10" x="18.04" y="10.84" width="8.15" height="0.66"/><rect class="cls-10" x="18.04" y="12.4" width="8.15" height="0.66"/><rect class="cls-10" x="18.04" y="13.95" width="8.15" height="0.66"/></g></g></svg>