<svg xmlns="http://www.w3.org/2000/svg" viewBox="0 0 23.3 15.7"><defs><style>.cls-1{fill:none;}.cls-1,.cls-2,.cls-4{stroke:#111;stroke-miterlimit:10;stroke-width:0.5px;}.cls-2{fill:#5a5d60;}.cls-3{fill:#1ed760;}.cls-4{fill:#f9f9f9;}.cls-5{fill:#ddd;}</style></defs><title>chat-icon</title><g id="Calque_2" data-name="Calque 2"><g id="Calque_1-2" data-name="Calque 1"><rect class="cls-1" x="8.88" y="2.49" width="14.17" height="10.92" rx="2.83" ry="2.83" transform="translate(31.93 15.89) rotate(180)"/><polygon class="cls-2" points="20.35 13.41 17.16 13.41 20.35 15.26 20.35 13.41"/><rect class="cls-3" x="11.76" y="5.28" width="8.15" height="0.66"/><rect class="cls-3" x="11.76" y="6.84" width="8.15" height="0.66"/><rect class="cls-3" x="11.76" y="8.39" width="8.15" height="0.66"/><rect class="cls-3" x="11.76" y="9.95" width="8.15" height="0.66"/><rect class="cls-4" x="0.25" y="0.25" width="14.17" height="10.92" rx="2.83" ry="2.83"/><polygon class="cls-2" points="2.95 11.17 6.14 11.17 2.95 13.03 2.95 11.17"/><rect class="cls-5" x="3.26" y="3.05" width="8.15" height="0.66"/><rect class="cls-5" x="3.26" y="4.6" width="8.15" height="0.66"/><rect class="cls-5" x="3.26" y="6.16" width="8.15" height="0.66"/><rect class="cls-5" x="3.26" y="7.71" width="8.15" height="0.66"/></g></g></svg>