<svg xmlns="http://www.w3.org/2000/svg" viewBox="0 0 62.71 30.76"><defs><style>.cls-1{fill:#fcfcfc;}.cls-1,.cls-5{stroke:#111;stroke-miterlimit:10;}.cls-2{fill:#011111;}.cls-3{font-size:12px;fill:#5a5d60;font-family:MyriadPro-Regular, Myriad Pro;}.cls-4{fill:#111;}.cls-5{fill:none;}</style></defs><title>googlesearch</title><g id="Calque_2" data-name="Calque 2"><g id="Calque_1-2" data-name="Calque 1"><path class="cls-1" d="M.54,4.37H62.17a.05.05,0,0,1,0,.06V15.57a.05.05,0,0,1,0,.06H.54a.05.05,0,0,1,0-.06V4.43A.05.05,0,0,1,.54,4.37Z"/><circle class="cls-1" cx="16.19" cy="11.56" r="11.06"/><rect class="cls-2" x="27.98" y="18.06" width="1.32" height="14.34" transform="translate(-9.45 27.64) rotate(-45)"/><text class="cls-3" transform="translate(12.52 15.08)">A</text><rect class="cls-4" x="56.42" y="11.45" width="0.75" height="1.58"/><rect class="cls-4" x="56.08" y="6.97" width="1.42" height="3.64" rx="0.71" ry="0.71"/><path class="cls-5" d="M58.5,9.69a1.71,1.71,0,0,1-3.42,0"/></g></g></svg>