<svg xmlns="http://www.w3.org/2000/svg" viewBox="0 0 52.92 28.22"><defs><style>.cls-1{fill:#111;stroke:#656666;stroke-miterlimit:10;stroke-width:0.1px;}.cls-2{fill:#fcfcfc;}.cls-3{fill:#34373a;}.cls-4{fill:#5a5d60;}.cls-5{fill:#45494c;}</style></defs><title>laptop</title><g id="Calque_2" data-name="Calque 2"><g id="Calque_1-2" data-name="Calque 1"><path class="cls-1" d="M49,27.05V1.18A1.13,1.13,0,0,0,47.87.05H5.13A1.13,1.13,0,0,0,4,1.18V27.05Z"/><rect class="cls-2" x="4.9" y="1.88" width="43.06" height="24.23"/><circle class="cls-3" cx="26.6" cy="1.07" r="0.23"/><path class="cls-4" d="M0,27.05v.71l.35.09a8.5,8.5,0,0,0,2.17.29L50,28.22a7.67,7.67,0,0,0,3-.58h0v-.58H0Z"/><path class="cls-5" d="M22,27.05h9s0,.49-.69.49H22.66S22,27.54,22,27.05Z"/></g></g></svg>