<svg xmlns="http://www.w3.org/2000/svg" viewBox="0 0 52.92 28.22"><defs><style>.cls-1{fill:#111;stroke:#656666;stroke-miterlimit:10;stroke-width:0.1px;}.cls-2{fill:#fcfcfc;}.cls-3{fill:#34373a;}.cls-4{fill:#5a5d60;}.cls-5{fill:#45494c;}.cls-6{fill:#aaa9a9;}.cls-7{fill:#1ed760;}.cls-8{fill:#c1c1c1;}.cls-9{fill:#f9f9f9;}</style></defs><title>ordi</title><g id="Calque_2" data-name="Calque 2"><g id="Calque_1-2" data-name="Calque 1"><path class="cls-1" d="M49,27.05V1.18A1.13,1.13,0,0,0,47.87.05H5.13A1.13,1.13,0,0,0,4,1.18V27.05Z"/><rect class="cls-2" x="4.97" y="1.88" width="43.06" height="24.23"/><circle class="cls-3" cx="26.6" cy="1.07" r="0.23"/><path class="cls-4" d="M0,27.05v.71l.35.09a8.5,8.5,0,0,0,2.17.29L50,28.22a7.67,7.67,0,0,0,3-.58h0v-.58H0Z"/><path class="cls-5" d="M22,27.05h9s0,.49-.69.49H22.66S22,27.54,22,27.05Z"/><rect class="cls-6" x="4.97" y="1.88" width="43.06" height="2.5"/><rect class="cls-7" x="14.07" y="9.59" width="25.05" height="2.13"/><rect class="cls-8" x="16.18" y="12.68" width="20.83" height="2.13"/><rect class="cls-7" x="4.97" y="19.89" width="43.06" height="6.22"/><circle class="cls-7" cx="8.06" cy="3.13" r="0.55"/><rect class="cls-9" x="32.57" y="2.81" width="3.9" height="0.66"/><rect class="cls-9" x="37.51" y="2.81" width="3.9" height="0.66"/><rect class="cls-9" x="42.45" y="2.81" width="3.9" height="0.66"/><rect class="cls-2" x="16.05" y="21.96" width="5.04" height="2.07"/><rect class="cls-2" x="23.85" y="21.96" width="5.04" height="2.07"/><rect class="cls-2" x="31.65" y="21.96" width="5.04" height="2.07"/></g></g></svg>