<svg xmlns="http://www.w3.org/2000/svg" viewBox="0 0 287.05 84"><defs><style>.cls-1{font-size:60px;fill:#fff;font-family:Circular-Std-Medium, Circular Std;letter-spacing:-0.04em;}.cls-2{letter-spacing:-0.04em;}.cls-3{letter-spacing:-0.02em;}.cls-4{letter-spacing:-0.04em;}.cls-5{fill:#fcfcfc;}.cls-6{fill:none;stroke:#fcfcfc;stroke-miterlimit:10;}</style></defs><title>logo_medium</title><g id="Calque_2" data-name="Calque 2"><g id="Calque_1-2" data-name="Calque 1"><text class="cls-1" transform="translate(92.42 63.31)">iden<tspan class="cls-2" x="109.74" y="0">t</tspan><tspan x="129.36" y="0">i</tspan><tspan class="cls-3" x="142.86" y="0">f</tspan><tspan class="cls-4" x="162.66" y="0">y</tspan></text><path class="cls-5" d="M42,0A42,42,0,1,0,84,42,42,42,0,0,0,42,0Zm-.47,56.11c1.29,2.16,2.07,4.92.19,7.45-3.84,5.16-12.24,5.61-18.29,4.72-3.14-.46-5.64-1.1-5-1.64,1.06-1,3.41-2.83,3.71-4.63.49-3,1.37-7.32,4.44-9.94a8,8,0,0,1,6.71-1.72C34.82,47.6,55.11,12.79,64,16S43.13,52.89,41,55.29C41.17,55.56,41.36,55.83,41.52,56.11Z"/><path class="cls-6" d="M33.13,50.12S54.74,12.24,64,15.56,40.85,55,40.85,55a12.24,12.24,0,0,0-3.44-3.27A10.83,10.83,0,0,0,33.13,50.12Z"/><path class="cls-6" d="M18.38,66.65c1.06-1,3.41-2.83,3.71-4.63.49-3,1.37-7.32,4.44-9.94a8.09,8.09,0,0,1,6.87-1.7,11.92,11.92,0,0,1,8.13,5.73c1.29,2.16,2.07,4.92.19,7.45-3.84,5.16-12.24,5.61-18.29,4.72C20.28,67.82,17.78,67.19,18.38,66.65Z"/></g></g></svg>