<svg xmlns="http://www.w3.org/2000/svg" viewBox="0 0 13.12 16.75"><defs><style>.cls-1{fill:none;}.cls-1,.cls-2,.cls-5{stroke:#111;stroke-miterlimit:10;stroke-width:0.5px;}.cls-2{fill:#fcfcfc;}.cls-3{fill:#afafaf;}.cls-4{fill:#1ed760;}.cls-5{fill:#5a5d60;}</style></defs><title>transfert-icon</title><g id="Calque_2" data-name="Calque 2"><g id="Calque_1-2" data-name="Calque 1"><path class="cls-1" d="M11,3.31V14.92a.05.05,0,0,1-.05.05H.3a.05.05,0,0,1-.05-.05V.28a0,0,0,0,1,0,0H7.56Z"/><circle class="cls-2" cx="9.31" cy="12.94" r="3.56"/><path class="cls-3" d="M9.23,11.94,8.16,10.87l-.09-.06a.27.27,0,0,0-.29.06L6.7,11.94a.27.27,0,1,0,.38.38l.62-.62v3.12a.27.27,0,0,0,.54,0V11.71l.62.62a.27.27,0,0,0,.38-.38Z"/><path class="cls-4" d="M11.92,13.56a.27.27,0,0,0-.38,0h0l-.62.62V11.06a.27.27,0,0,0-.54,0v3.12l-.62-.62a.27.27,0,1,0-.38.38L10.46,15l.09.06a.27.27,0,0,0,.29-.06l1.07-1.08a.27.27,0,0,0,0-.38Z"/><path class="cls-5" d="M7.56.25"/><path class="cls-5" d="M7.56.46v2.8a.05.05,0,0,0,.05.05h3.08a.12.12,0,0,0,.08-.21L7.71.39A.09.09,0,0,0,7.56.46Z"/></g></g></svg>