<svg xmlns="http://www.w3.org/2000/svg" viewBox="0 0 52.92 28.22"><defs><style>.cls-1,.cls-6{fill:#111;}.cls-1{stroke:#656666;stroke-miterlimit:10;stroke-width:0.1px;}.cls-2{fill:#fcfcfc;}.cls-3{fill:#34373a;}.cls-4{fill:#5a5d60;}.cls-5{fill:#45494c;}.cls-7{fill:#afafaf;}.cls-8{fill:#1ed760;}</style></defs><title>transfert</title><g id="Calque_2" data-name="Calque 2"><g id="Calque_1-2" data-name="Calque 1"><path class="cls-1" d="M49,27.05V1.18A1.13,1.13,0,0,0,47.87.05H5.13A1.13,1.13,0,0,0,4,1.18V27.05Z"/><rect class="cls-2" x="4.97" y="1.88" width="43.06" height="24.23"/><circle class="cls-3" cx="26.6" cy="1.07" r="0.23"/><path class="cls-4" d="M0,27.05v.71l.35.09a8.5,8.5,0,0,0,2.17.29L50,28.22a7.67,7.67,0,0,0,3-.58h0v-.58H0Z"/><path class="cls-5" d="M22,27.05h9s0,.49-.69.49H22.66S22,27.54,22,27.05Z"/><rect class="cls-2" x="10.84" y="8.2" width="10.61" height="1"/><rect class="cls-2" x="10.84" y="10.42" width="10.61" height="1"/><rect class="cls-2" x="10.84" y="12.64" width="10.61" height="1"/><rect class="cls-2" x="30.89" y="12.44" width="10.61" height="1"/><rect class="cls-2" x="30.89" y="14.66" width="10.61" height="1"/><rect class="cls-2" x="30.89" y="16.88" width="10.61" height="1"/><g id="Calque_2-2" data-name="Calque 2"><g id="Layer_1" data-name="Layer 1"><path class="cls-6" d="M25.43,21.38H20.05V19.5a.27.27,0,1,0-.54,0v2.15a.27.27,0,0,0,.27.27h5.65a.27.27,0,1,0,0-.54Z"/><path class="cls-7" d="M29.11,17.7,28,16.62,28,16.56a.27.27,0,0,0-.29.06L26.58,17.7a.27.27,0,0,0,.38.38l.62-.62v3.12a.27.27,0,0,0,.54,0V17.46l.62.62a.27.27,0,1,0,.38-.38Z"/><path class="cls-8" d="M31.8,19.31a.27.27,0,0,0-.38,0h0l-.62.62V16.81a.27.27,0,0,0-.54,0v3.12l-.62-.62a.27.27,0,0,0-.38.38l1.08,1.08.09.06a.27.27,0,0,0,.29-.06l1.07-1.08a.27.27,0,0,0,0-.38Z"/><path class="cls-6" d="M29.19,14.66a4,4,0,1,0,4,4A4,4,0,0,0,29.19,14.66Zm0,7.53a3.49,3.49,0,1,1,3.49-3.49h0A3.5,3.5,0,0,1,29.19,22.19Z"/><path class="cls-6" d="M30.73,11l-4.3-4.3a.27.27,0,0,0-.19-.08H19.78a.27.27,0,0,0-.27.27V17.35a.27.27,0,1,0,.54,0V7.13H26v4a.27.27,0,0,0,.27.27h4v2.42a.27.27,0,0,0,.54,0V11.17A.27.27,0,0,0,30.73,11ZM26.5,10.9V7.51l3.38,3.38H26.5Z"/><rect class="cls-6" x="19.51" y="16.54" width="0.54" height="3.14"/><polygon class="cls-4" points="26.5 7.51 26.5 10.9 29.89 10.9 26.5 7.51"/></g></g></g></g></svg>